<svg xmlns="http://www.w3.org/2000/svg" xmlns:xlink="http://www.w3.org/1999/xlink" version="1.1" width="256" height="256" viewBox="0 0 256 256" xml:space="preserve">
<g style="stroke: none; stroke-width: 0; stroke-dasharray: none; stroke-linecap: butt; stroke-linejoin: miter; stroke-miterlimit: 10; fill: none; fill-rule: nonzero; opacity: 1;" transform="translate(1.4065934065934016 1.4065934065934016) scale(2.81 2.81)">
	<path d="M 88.688 62.803 L 47.108 84.672 c -1.32 0.694 -2.897 0.694 -4.217 0 L 1.312 62.803 c -1.75 -0.92 -1.75 -3.425 0 -4.346 l 41.579 -21.869 c 1.32 -0.694 2.897 -0.694 4.217 0 l 41.579 21.869 C 90.437 59.378 90.437 61.883 88.688 62.803 z" style="stroke: none; stroke-width: 1; stroke-dasharray: none; stroke-linecap: butt; stroke-linejoin: miter; stroke-miterlimit: 10; fill: rgb(255,200,97); fill-rule: nonzero; opacity: 1;" transform=" matrix(1 0 0 1 0 0) " stroke-linecap="round"/>
	<path d="M 42.892 73.388 c 1.32 0.694 2.897 0.694 4.217 0 l 34.984 -18.4 l -7.232 -3.804 L 47.108 65.781 c -1.32 0.694 -2.897 0.694 -4.217 0 L 15.14 51.185 l -7.232 3.804 L 42.892 73.388 z" style="stroke: none; stroke-width: 1; stroke-dasharray: none; stroke-linecap: butt; stroke-linejoin: miter; stroke-miterlimit: 10; fill: rgb(234,174,80); fill-rule: nonzero; opacity: 1;" transform=" matrix(1 0 0 1 0 0) " stroke-linecap="round"/>
	<path d="M 88.688 47.173 L 47.108 69.041 c -1.32 0.694 -2.897 0.694 -4.217 0 L 1.312 47.173 c -1.75 -0.92 -1.75 -3.425 0 -4.346 l 41.579 -21.869 c 1.32 -0.694 2.897 -0.694 4.217 0 l 41.579 21.869 C 90.437 43.747 90.437 46.253 88.688 47.173 z" style="stroke: none; stroke-width: 1; stroke-dasharray: none; stroke-linecap: butt; stroke-linejoin: miter; stroke-miterlimit: 10; fill: rgb(255,200,97); fill-rule: nonzero; opacity: 1;" transform=" matrix(1 0 0 1 0 0) " stroke-linecap="round"/>
	<path d="M 42.892 57.758 c 1.32 0.694 2.897 0.694 4.217 0 l 34.984 -18.4 l -7.232 -3.804 L 47.108 50.151 c -1.32 0.694 -2.897 0.694 -4.217 0 L 15.14 35.555 l -7.232 3.804 L 42.892 57.758 z" style="stroke: none; stroke-width: 1; stroke-dasharray: none; stroke-linecap: butt; stroke-linejoin: miter; stroke-miterlimit: 10; fill: rgb(234,174,80); fill-rule: nonzero; opacity: 1;" transform=" matrix(1 0 0 1 0 0) " stroke-linecap="round"/>
	<path d="M 88.688 31.543 L 47.108 53.411 c -1.32 0.694 -2.897 0.694 -4.217 0 L 1.312 31.543 c -1.75 -0.92 -1.75 -3.425 0 -4.346 L 42.892 5.328 c 1.32 -0.694 2.897 -0.694 4.217 0 l 41.579 21.869 C 90.437 28.117 90.437 30.622 88.688 31.543 z" style="stroke: none; stroke-width: 1; stroke-dasharray: none; stroke-linecap: butt; stroke-linejoin: miter; stroke-miterlimit: 10; fill: rgb(85,161,255); fill-rule: nonzero; opacity: 1;" transform=" matrix(1 0 0 1 0 0) " stroke-linecap="round"/>
</g>
</svg>